<svg width="1424" height="962" xmlns="http://www.w3.org/2000/svg" xmlns:xlink="http://www.w3.org/1999/xlink" xml:space="preserve" overflow="hidden"><defs><clipPath id="clip0"><rect x="2692" y="1370" width="1424" height="962"/></clipPath></defs><g clip-path="url(#clip0)" transform="translate(-2692 -1370)"><path d="M2949.33 2332C2931.48 2332 2917 2317.52 2917 2299.67L2917 1402.33C2917 1384.48 2931.48 1370 2949.33 1370L3078.67 1370C3096.52 1370 3111 1384.48 3111 1402.33L3111 2299.67C3111 2317.52 3096.52 2332 3078.67 2332Z" fill="#E97132" fill-rule="evenodd"/><path d="M2724.33 2332C2706.48 2332 2692 2317.52 2692 2299.67L2692 1402.33C2692 1384.48 2706.48 1370 2724.33 1370L2853.67 1370C2871.52 1370 2886 1384.48 2886 1402.33L2886 2299.67C2886 2317.52 2871.52 2332 2853.67 2332Z" fill="#736B62" fill-rule="evenodd"/><text fill="#736B62" font-family="Plus Jakarta Sans,Plus Jakarta Sans_MSFontService,sans-serif" font-weight="400" font-size="202" transform="matrix(1 0 0 1 3398.32 1683)">THE</text><text fill="#FFFFFF" font-family="Plus Jakarta Sans,Plus Jakarta Sans_MSFontService,sans-serif" font-weight="400" font-size="202" transform="matrix(1 0 0 1 3773.01 1683)"> </text><text fill="#FFFFFF" font-family="Plus Jakarta Sans,Plus Jakarta Sans_MSFontService,sans-serif" font-weight="700" font-size="202" transform="matrix(1 0 0 1 3398.32 1925)">DECK</text><text fill="#FFFFFF" font-family="Plus Jakarta Sans,Plus Jakarta Sans_MSFontService,sans-serif" font-weight="400" font-size="202" transform="matrix(1 0 0 1 3959.78 1925)"> </text><text fill="#736B62" font-family="Plus Jakarta Sans,Plus Jakarta Sans_MSFontService,sans-serif" font-weight="400" font-size="202" transform="matrix(1 0 0 1 3398.32 2167)">LAB</text><text fill="#736B62" font-family="Plus Jakarta Sans,Plus Jakarta Sans_MSFontService,sans-serif" font-weight="400" font-size="202" transform="matrix(1 0 0 1 3776.45 2167)"> </text><path d="M3173.33 2332C3155.48 2332 3141 2317.52 3141 2299.67L3141 1724.33C3141 1706.48 3155.48 1692 3173.33 1692L3302.67 1692C3320.52 1692 3335 1706.48 3335 1724.33L3335 2299.67C3335 2317.52 3320.52 2332 3302.67 2332Z" fill="#736B62" fill-rule="evenodd"/><path d="M3173.33 1664C3155.48 1664 3141 1649.52 3141 1631.67L3141 1402.33C3141 1384.48 3155.48 1370 3173.33 1370L3302.67 1370C3320.52 1370 3335 1384.48 3335 1402.33L3335 1631.67C3335 1649.52 3320.52 1664 3302.67 1664Z" fill="#736B62" fill-rule="evenodd"/></g></svg>